PathFileType	4	(X/Y/Z)	\\Move.snu.ac.kr\motion\Animal\091204_091205_Bird\091205_bird\Project 2\Capture day 2\Session 1\pigeon_009.trc
DataRate	CameraRate	NumFrames	NumMarkers	Units	OrigDataRate	OrigDataStartFrame	OrigNumFrames
240.0	240.0	21	14	mm	240.0	73	2292
Frame#	Time	14MarkersBird:Head			14MarkersBird:C_back			14MarkersBird:Spine			14MarkersBird:L-shoulder			14MarkersBird:L-elbow			14MarkersBird:L-wrist			14MarkersBird:L-hand			14MarkersBird:R-shoulder			14MarkersBird:R-elbow			14MarkersBird:R-Wrist			14MarkersBird:R-hand			14MarkersBird:C_Tail			14MarkersBird:L-Tale			14MarkersBird:R-Tale			
		X1	Y1	Z1	X2	Y2	Z2	X3	Y3	Z3	X4	Y4	Z4	X5	Y5	Z5	X6	Y6	Z6	X7	Y7	Z7	X8	Y8	Z8	X9	Y9	Z9	X10	Y10	Z10	X11	Y11	Z11	X12	Y12	Z12	X13	Y13	Z13	X14	Y14	Z14	

839	3.492	685.40735	2439.98193	-1975.76819	735.57379	2427.97559	-1948.15601	781.40430	2417.63403	-1915.45911	701.42993	2436.01587	-1941.85461	738.53625	2455.89526	-1944.05103	717.40320	2494.27222	-1946.96155	737.30591	2514.76953	-1953.57983	722.49329	2421.46313	-1977.96277	747.40527	2446.75439	-1970.40881	748.82990	2465.83203	-2005.44238	773.67175	2500.48999	-2009.74670	837.59912	2338.37769	-1833.14441	760.22723	2418.73267	-1813.49634	844.94080	2328.64111	-1959.49072	
840	3.496	680.73364	2440.78174	-1977.66174	730.77533	2428.31812	-1949.50818	776.10492	2418.19824	-1917.06189	696.31506	2436.74048	-1943.79858	730.45593	2457.72803	-1943.16650	707.10010	2494.68408	-1941.45337	722.51624	2518.49316	-1946.70898	717.63867	2421.12598	-1980.54993	743.48798	2444.72827	-1975.89893	747.94391	2458.47412	-2013.30872	771.93445	2491.61914	-2023.26245	832.04236	2338.79712	-1834.68652	754.56702	2420.88428	-1815.76367	841.33734	2330.26221	-1960.50525	
841	3.500	675.98853	2441.56177	-1979.57495	725.84265	2428.78711	-1951.04187	770.76587	2418.91406	-1918.92969	690.84735	2437.16602	-1945.87988	721.81238	2458.77148	-1942.20740	695.50836	2493.58984	-1934.55627	705.48938	2520.28223	-1936.05176	712.45026	2420.33057	-1983.23584	739.72009	2441.78979	-1981.49524	746.65863	2448.39185	-2021.35413	770.70618	2476.78467	-2037.90173	827.01410	2340.10889	-1836.51807	749.25000	2422.53979	-1818.01343	837.33844	2331.46411	-1961.25354	
842	3.504	671.14026	2442.36890	-1981.58313	720.74493	2429.42310	-1952.80261	765.43451	2419.80542	-1921.06885	685.00000	2437.28711	-1948.04822	712.37109	2458.91772	-1940.95508	682.52747	2490.25439	-1927.73206	686.32880	2518.23193	-1924.23438	707.00397	2419.18848	-1986.00671	735.61469	2436.39160	-1987.96826	743.31567	2436.28931	-2028.80664	767.19727	2457.19775	-2051.89648	822.64313	2342.46973	-1838.49561	744.20178	2423.76465	-1820.21521	832.84760	2332.26758	-1961.99084	
843	3.508	666.21094	2443.21851	-1983.79553	715.51044	2430.26709	-1954.82300	760.15790	2420.89502	-1923.48560	678.89038	2437.21045	-1950.31799	702.09918	2458.40967	-1939.04395	668.32037	2484.13208	-1922.34717	665.52661	2511.26050	-1913.94836	701.43536	2417.93896	-1988.81213	731.27917	2432.57666	-1993.25146	736.77258	2423.02710	-2034.99402	759.21942	2434.72681	-2063.74268	818.81848	2345.73120	-1840.55554	739.26416	2424.68921	-1822.42395	827.98590	2332.88428	-1962.88818	
844	3.513	661.21918	2444.07153	-1986.25562	710.24774	2431.35547	-1957.12427	754.98059	2422.20483	-1926.18652	672.68158	2437.06885	-1952.73474	691.18262	2457.19751	-1936.78394	653.57904	2475.16479	-1919.55701	644.22687	2499.23950	-1907.32996	695.84192	2416.91602	-1991.57434	726.50897	2426.30249	-2000.55164	726.67584	2409.54980	-2039.20007	745.82642	2411.33716	-2071.81909	815.24310	2349.53223	-1842.70251	734.29297	2425.44824	-1824.73987	822.98151	2333.55396	-1963.99475	
845	3.517	656.14551	2444.86182	-1988.93457	705.10669	2432.69482	-1959.72620	749.92877	2423.74268	-1929.17249	666.51685	2437.01025	-1955.35474	679.91095	2454.86230	-1935.07397	639.48126	2463.94556	-1920.15649	624.10181	2482.85498	-1905.67029	690.27930	2416.43579	-1994.29224	719.83917	2418.47363	-2006.90735	713.45551	2397.00195	-2040.78467	727.37769	2388.95435	-2074.65869	811.60834	2353.47998	-1844.98511	729.25195	2426.13477	-1827.24023	818.04956	2334.41309	-1965.24915	
846	3.521	650.95386	2445.52246	-1991.79944	700.16626	2434.22437	-1962.63025	744.98395	2425.47241	-1932.42041	660.50415	2437.17114	-1958.23755	668.76685	2451.20801	-1934.84229	627.27222	2451.66235	-1924.35388	606.98157	2463.56079	-1909.36780	684.79230	2416.63208	-1997.04846	709.99658	2412.79639	-2009.51331	698.18091	2386.70239	-2039.56506	705.33069	2369.65479	-2071.70190	807.74921	2357.28198	-1847.48083	724.24213	2426.79102	-1829.93384	813.36047	2335.51880	-1966.55188	
847	3.525	645.60510	2445.99414	-1994.83142	695.36548	2435.83545	-1965.80493	740.06006	2427.27881	-1935.86243	654.71655	2437.63940	-1961.40527	658.47644	2446.81567	-1936.25989	617.77728	2439.90137	-1931.66760	594.31097	2443.57300	-1918.00781	679.39160	2417.40479	-1999.93726	701.34210	2407.66162	-2012.41528	682.32837	2379.83252	-2036.11023	681.84967	2355.53076	-2063.76416	803.66101	2360.76636	-1850.26746	719.44666	2427.43701	-1832.76599	809.00879	2336.88013	-1967.81165	
848	3.529	640.06580	2446.23511	-1998.03186	690.54205	2437.44360	-1969.20093	735.02252	2428.97046	-1939.38708	649.14764	2438.41187	-1964.82935	649.92322	2442.74316	-1938.79236	611.12793	2430.36841	-1941.02295	586.64362	2425.65308	-1930.41882	674.03931	2418.51440	-2003.01160	693.06836	2403.99683	-2014.22705	667.46002	2377.04761	-2031.70325	659.28217	2348.07495	-2052.93481	799.39441	2363.82690	-1853.38623	715.01312	2428.07007	-1835.67151	804.93304	2338.41064	-1968.94031	
849	3.533	634.31610	2446.22925	-2001.40784	685.50629	2439.00000	-1972.77026	729.74347	2430.35107	-1942.89282	643.70422	2439.39990	-1968.47095	643.52679	2439.75366	-1941.59912	606.76453	2424.44824	-1950.92566	583.36957	2412.43408	-1944.74670	668.67761	2419.72046	-2006.28589	686.02008	2401.90918	-2015.38818	654.91730	2378.23901	-2027.98669	639.67767	2347.45557	-2041.99023	794.93341	2366.36548	-1856.82532	710.92627	2428.63867	-1838.62146	800.88196	2339.89551	-1969.88098	
850	3.537	628.34839	2445.99243	-2004.97034	680.10846	2440.43481	-1976.47937	724.13983	2431.30933	-1946.35291	638.27118	2440.45947	-1972.27063	639.05249	2438.03906	-1944.02991	603.72357	2422.80054	-1959.80188	582.85120	2405.54541	-1958.72327	663.25928	2420.84424	-2009.73779	680.73450	2401.29492	-2016.41699	645.59119	2382.53540	-2026.41382	624.47351	2352.23511	-2033.63477	790.14026	2368.24951	-1860.53650	706.94928	2429.04712	-1841.63452	796.48206	2341.03857	-1970.64734	
851	3.542	622.16895	2445.56104	-2008.73132	674.29590	2441.63159	-1980.31714	718.19739	2431.88965	-1949.81152	632.79431	2441.44116	-1976.12415	636.02045	2437.68628	-1945.85962	601.04785	2425.16235	-1966.42529	583.02307	2405.01367	-1970.16919	657.75073	2421.75903	-2013.30908	677.32043	2402.03882	-2017.77808	639.76324	2388.57690	-2027.76038	614.34216	2359.82300	-2029.74854	784.79877	2369.31372	-1864.44836	702.68726	2429.20117	-1844.75378	791.35443	2341.55347	-1971.32861	
852	3.546	615.80750	2444.97656	-2012.69385	668.11261	2442.44922	-1984.27881	711.97217	2432.26733	-1953.33325	627.26349	2442.23657	-1979.93103	633.90155	2438.82471	-1947.46204	598.16339	2430.60986	-1970.36560	582.19916	2409.41138	-1977.55334	652.11719	2422.36377	-2016.92236	675.46613	2404.13135	-2019.74170	637.04004	2395.06812	-2032.04370	609.21783	2367.46240	-2030.84863	778.71521	2369.42529	-1868.44897	697.72528	2429.05054	-1848.00952	785.25128	2341.27271	-1972.09070	
853	3.550	609.32898	2444.27100	-2016.84009	661.65924	2442.78296	-1988.35083	705.56317	2432.60303	-1956.92505	621.64825	2442.79614	-1983.68066	632.25378	2441.51147	-1949.58118	594.99091	2438.10522	-1972.09387	579.69476	2416.75635	-1980.36340	646.33057	2422.62817	-2020.53259	674.47211	2407.64282	-2022.29504	636.55780	2401.29761	-2038.73706	608.60583	2373.33203	-2036.20081	771.79944	2368.58667	-1872.37512	691.76801	2428.60913	-1851.40161	778.16418	2340.23877	-1973.17078	
854	3.554	602.83185	2443.47217	-2021.13049	655.04608	2442.60010	-1992.51025	699.04663	2432.88965	-1960.53674	615.89673	2443.10962	-1987.46387	630.76172	2445.45435	-1952.95996	591.84039	2446.84106	-1972.67261	575.98492	2425.57324	-1979.06714	640.41119	2422.69629	-2024.17065	673.36798	2412.58350	-2025.16687	637.42322	2407.24561	-2046.93323	611.98383	2377.14307	-2044.39368	764.08478	2366.99268	-1876.05933	684.73297	2427.97046	-1854.91687	770.34729	2338.71191	-1974.83508	
855	3.558	596.41760	2442.61890	-2025.51147	648.35864	2441.95361	-1996.73462	692.40729	2432.87769	-1964.11011	609.96729	2443.16162	-1991.40552	629.30920	2449.90698	-1958.00916	589.23059	2456.15918	-1973.34863	572.46497	2435.31104	-1974.81506	634.42175	2422.85815	-2027.87720	671.15601	2418.75830	-2027.95398	638.98273	2413.32495	-2055.46240	618.91852	2379.99731	-2053.90967	755.70837	2364.99048	-1879.39343	676.76184	2427.28320	-1858.55237	762.23474	2337.08325	-1977.31006	
856	3.563	590.14722	2441.76318	-2029.92810	641.64972	2440.98364	-2001.00952	685.60583	2432.36621	-1967.63184	603.84509	2442.95435	-1995.58521	627.89557	2453.91162	-1964.74170	587.62915	2465.32544	-1975.22925	570.88263	2445.94531	-1969.26160	628.40527	2423.33960	-2031.58643	667.13525	2425.71899	-2030.27307	640.68390	2419.97754	-2063.07251	628.81140	2383.75757	-2063.40210	746.87610	2362.95923	-1882.35242	668.14740	2426.69360	-1862.32678	754.30023	2335.73462	-1980.72693	
857	3.567	584.02814	2440.95605	-2034.35046	634.94800	2439.88306	-2005.31335	678.69440	2431.47241	-1971.12976	597.57953	2442.57251	-2000.03345	626.45532	2456.70117	-1972.84766	587.15723	2473.51221	-1978.98718	572.48322	2457.39331	-1964.50647	622.36395	2424.12402	-2035.19006	661.12988	2432.79956	-2031.87793	641.84497	2427.38086	-2068.79858	640.52539	2390.33252	-2071.77246	737.81104	2361.16309	-1884.97070	659.21997	2426.28931	-1866.24854	746.91229	2334.92432	-1985.09290	
858	3.571	578.02789	2440.22876	-2038.78271	628.29840	2438.82202	-2009.59314	671.79083	2430.43433	-1974.61133	591.31494	2442.14575	-2004.72021	624.75024	2457.95874	-1981.78271	587.56171	2480.12817	-1984.72107	577.26947	2469.27881	-1962.69006	616.32159	2425.00732	-2038.73450	654.48737	2440.88208	-2033.50659	641.75293	2435.36206	-2072.32178	652.27417	2400.98804	-2078.17383	728.70172	2359.67041	-1887.32275	650.26752	2426.08984	-1870.28760	740.24329	2334.74731	-1990.29431	
859	3.575	572.10284	2439.58789	-2043.24048	621.77429	2437.87500	-2013.78479	664.98822	2429.34741	-1978.03467	585.21893	2441.71289	-2009.50867	622.44275	2457.85132	-1990.89185	588.33691	2485.07104	-1992.01709	584.05566	2480.95508	-1965.22278	610.33508	2425.76367	-2042.42090	644.88123	2446.05298	-2033.09302	640.00055	2443.48608	-2073.98315	661.91803	2415.80566	-2082.03760	719.69348	2358.37524	-1889.51611	641.49542	2426.07007	-1874.38293	734.26849	2335.16284	-1996.13928	
